<?xml version="1.0" encoding="iso-8859-1"?>
<!-- Uploaded to: SVG Repo, www.svgrepo.com, Generator: SVG Repo Mixer Tools -->
<!DOCTYPE svg PUBLIC "-//W3C//DTD SVG 1.1//EN" "http://www.w3.org/Graphics/SVG/1.1/DTD/svg11.dtd">
<svg fill="#000000" version="1.1" id="Capa_1" xmlns="http://www.w3.org/2000/svg" xmlns:xlink="http://www.w3.org/1999/xlink" 
	 width="800px" height="800px" viewBox="0 0 330.36 330.36"
	 xml:space="preserve">
<g>
	<g>
		<path d="M74.311,293.288l182.268,37.072V69.773l-17.956-3.046V0L73.781,35.997v255.825l0.535-0.116v1.582H74.311z M90.511,280.052
			v-8.396V58.056l131.913,22.356l16.199,2.748l1.757,0.298v227.074l-130.325-26.505L90.511,280.052z M222.424,20.121v43.864
			L109.348,44.822L222.424,20.121z"/>
		<path d="M222.424,157.626c-0.923-0.68-1.994-1.197-3.19-1.442l-104.356-21.151c-4.4-0.907-8.662,1.951-9.548,6.331
			c-0.891,4.385,1.943,8.662,6.328,9.545l104.359,21.155c0.543,0.115,1.081,0.158,1.613,0.158c1.762,0,3.417-0.623,4.788-1.635
			c1.551-1.15,2.727-2.816,3.144-4.854C226.204,162.552,224.876,159.44,222.424,157.626z"/>
	</g>
</g>
</svg>